<svg xmlns="http://www.w3.org/2000/svg" viewBox="0 0 288 96" id="customer-service-default" aria-hidden="true" role="none" data-supported-dps="288x96">
  <path fill="#ffe8e2" d="M0 0h288v96H0z"/>
  <path d="M101 30.57c39.82-6 72.09 10.84 72.09 10.84v15.65H101z" fill="#aecd9e"/>
  <path d="M288 41.84v21.89H101v-18.5c24.36 7.19 100.79-25.56 187-3.39z" fill="#9eb22c"/>
  <path fill="#fcd59d" d="M101 59h187v37H101z"/>
  <path d="M101 51c72 0 104 4 187 4v3H101z" fill="#7e8f1d"/>
  <path fill="#1f201a" d="M195 57v-5l-18-8.14h-8L195 57z"/>
  <path fill="#414334" d="M187 52v5h-36v-5l18-8.14L187 52z"/>
  <path fill="#f4ba64" d="M101 92h187v1H101zM101 88h187v1H101zM101 84h187v1H101zM101 80h187v1H101zM101 76h187v1H101zM101 72h187v1H101z"/>
  <path fill="#1f201a" d="M164 52h9v5h-9z"/>
  <path fill="#f4ba64" d="M101 57h187v6H101z"/>
  <path fill="#65684e" d="M187 52h9v5h-9z"/>
  <path d="M124 21h60c-21-8-35-2-60-2zM246 29h-74c20-8 43-1 51-1s14-4 23 1zM288 12h-51c18-5 28-1 33-1s18-4 18-4z" fill="#fff8f5"/>
  <path fill="#fdfbff" d="M117 0h7v96h-7z"/>
  <path fill="#fbf8ff" d="M0 0h120v96H0z"/>
  <path d="M263 30a4 4 0 01-8 0z" fill="#62adf7"/>
  <path fill="#0a66c2" d="M255 21h8v9h-8z"/>
  <path fill="#38434f" d="M263 21h-8l4-4 4 4zM263 31v-1h-8v1l-4.83 41h1l1.07-9H257v9h1v-9h2v9h1v-9h4.75l1.07 9h1zm-6 31h-4.63l2-17.12H257zm0-18.12h-2.48L256.05 31h.95zM260 62h-2V44.88h2zm0-18.12h-2V31h2zM261 31h1l1.53 12.88H261zm0 31V44.88h2.6l2 17.12z"/>
  <path fill="#fff" d="M0 0h45v27H0z"/>
  <path fill="#56687a" d="M59 27h8v9h-8z"/>
  <path fill="#d0ddea" d="M70 22h10v10H70z"/>
  <path fill="#a46be7" d="M61 26h4v2h-4zM72 21h6v2h-6z"/>
  <path d="M44 0v26H0v2h46V0z" fill="#d8c1b2"/>
  <path fill="#d0ddea" d="M20 8.62L11.38 0H8.79L20 11.21V8.62zM6 18h3.38L6 14.62V18zM20 12.62L7.38 0H6v1.21l14 14v-2.59zM20 4.62L15.38 0h-2.59L20 7.21V4.62zM21 3.21L24.21 0h-2.59L21 .62v2.59zM21 11.21L32.21 0h-2.59L21 8.62v2.59zM21 7.21L28.21 0h-2.59L21 4.62v2.59zM20 .62L19.38 0h-2.59L20 3.21V.62zM30.21 18L35 13.21v-2.59L27.62 18h2.59zM26.21 18L35 9.21V6.62L23.62 18h2.59zM21 18h1.21L35 5.21V2.62l-14 14V18zM6 13.21L10.79 18h2.59L6 10.62v2.59zM33.62 0L21 12.62v2.59l14-14V0h-1.38zM35 18v-3.38L31.62 18H35zM6 9.21L14.79 18h2.59L6 6.62v2.59zM6 2.62v2.59L18.79 18H20v-1.38l-14-14z"/>
  <path fill="#f3e9ff" d="M74 0h22v15H74z"/>
  <path fill="#fff" d="M75 0h22v14H75z"/>
  <circle cx="78" cy="11" r="1" fill="#ffe8e2"/>
  <circle cx="82" cy="11" r="1" fill="#ffe8e2"/>
  <circle cx="86" cy="11" r="1" fill="#ffe8e2"/>
  <circle cx="90" cy="11" r="1" fill="#ffe8e2"/>
  <circle cx="94" cy="11" r="1" fill="#ffe8e2"/>
  <circle cx="78" cy="7" r="1" fill="#ffe8e2"/>
  <circle cx="82" cy="7" r="1" fill="#ffe8e2"/>
  <circle cx="86" cy="7" r="1" fill="#ffe8e2"/>
  <circle cx="90" cy="7" r="1" fill="#ffe8e2"/>
  <circle cx="94" cy="7" r="1" fill="#ffe8e2"/>
  <circle cx="78" cy="3" r="1" fill="#ffe8e2"/>
  <circle cx="82" cy="3" r="1" fill="#ffe8e2"/>
  <circle cx="86" cy="3" r="1" fill="#ffe8e2"/>
  <circle cx="90" cy="3" r="1" fill="#ffe8e2"/>
  <circle cx="94" cy="3" r="1" fill="#ffe8e2"/>
  <path fill="#b4c6d9" d="M72 25h6v1h-6zM72 27h6v1h-6z"/>
  <path fill="#95abc1" d="M61 30h4v1h-4zM61 32h4v1h-4z"/>
  <path d="M74 85c0-2 4-3 7-3s6.57-.1 6.57 3z" fill="#937fac"/>
  <path d="M85.06 79.75l-3.78-.5c0 .47 1.08.47 2.45.87l-2.16.6a.44.44 0 00.2.85l3.9-.75z" fill="#f0c59f"/>
  <path d="M86.11 83a.66.66 0 00.48-1 7.61 7.61 0 00-5.68-2.74c-.55 0-.81-.91.31-1a.58.58 0 01.64-.62 18.22 18.22 0 019.49 2.77c.91.61 3.64.07 3.64.07l1.62 4.14z" fill="#f5cea9"/>
  <path d="M114.63 67.39L111 86H95v-5.6l5-.65 8.13-21.63a5.62 5.62 0 015.38-3.63z" fill="#ccc3b5"/>
  <path d="M146 86V65c0-9-7-11-20-11v31.31z" fill="#394632"/>
  <path d="M110.28 49a.49.49 0 01-.41-.22.5.5 0 01.14-.7l5.23-3.46a.5.5 0 11.56.83l-5.24 3.47a.48.48 0 01-.28.08z" fill="#56687a"/>
  <path d="M108.39 50.73a1 1 0 01-.55-1.83l1.89-1.25a1 1 0 111.1 1.67L109 50.57a1 1 0 01-.61.16z" fill="#1c2024"/>
  <path d="M113.32 36.09a7.43 7.43 0 00-.84 3.43 15.08 15.08 0 01-.49 4.66c-.15.44.2.66.38.79a1.28 1.28 0 01.66.8c.09.49.54 2.87.54 2.87a1.42 1.42 0 001.6 1.34 1.81 1.81 0 011.57 3 5.71 5.71 0 01-3.24 1.5c.82 6.75 11.5 8.24 13.5-.48-3.28-3.57-2-7.51-.74-10.35 1.74-3.65-8.62-14.47-12.94-7.56z" fill="#f5cea9"/>
  <path d="M120 31.63c4.18-.13 7.23 3.29 7.68 5.23a24.93 24.93 0 003 7.6c2.11 3.77.51 8.16-3.14 8.16s-6.92-3.51-1.29-9.34l-5.06-2.45a3.79 3.79 0 01-1.51-4.43c-2.51 3.15-5.77 3.58-7.26 2.44.18-4.44 3.16-7.08 7.58-7.21z" fill="#5d3b09"/>
  <path d="M125.92 40.28a11.09 11.09 0 00-2.27-7.28 5.84 5.84 0 00-4.48-2 .5.5 0 00-.5.5.5.5 0 00.5.5 4.86 4.86 0 013.73 1.7 10 10 0 012 6.54 2.58 2.58 0 00-1.9 2.38 2.31 2.31 0 104.56.4 2.55 2.55 0 00-1.64-2.74z" fill="#1c2024"/>
  <path d="M113.51 54.49c3.57 4.28 11.16 2.29 13.49-.49 1.33.55 2.74 1 4.11 1.55l7.28 7.83C137.73 69.44 135 85 135 85h-29c2.71-6.52 2.89-7.39 1.69-11.66-1-3.75-1-6.07.88-9.1s4.49-6.24 4.94-9.75z" fill="#fff"/>
  <path d="M109 85c1 0 2.09-1 3-1h4l-1-4-1.45.3a6.36 6.36 0 01-3.62-.77l-2.45-1a2.07 2.07 0 00-2.36.45l-4 4.17z" fill="#f5cea9"/>
  <path d="M131 85c5 0 6.73-15.56 7.39-21.62.49-4.55-3.18-6.26-7.28-7.83-6.66 14-4.84 22.43-4.84 22.43L115 80v5z" fill="#ccc3b5"/>
  <path fill="#493d57" d="M81 83h28v2H81z"/>
  <path d="M35 63c0 4-4.25 5.11-7.38 5.43 0 0 .07-.06.1-.1a5.19 5.19 0 00.64-5C27.43 59.65 31 56.4 32.6 56l-.33-.43a7.62 7.62 0 00-5.13 5.24 27.9 27.9 0 00-2.59-3.39 7 7 0 01-1.71-6.16c.42-.93 1.37-1.13 2.48-1.35 1.3-.26 2.76-.55 3.33-2.2l-.95-.32c-.37 1.1-1.39 1.3-2.57 1.54a8.57 8.57 0 00-1.65.45 9.62 9.62 0 011.39-2.13l-.87-.76c-2.75 3.77-3 6.77-2.32 9.18a7.13 7.13 0 01-4.88-1.28l-.23-.15A1.43 1.43 0 0116 53v-2h-1v2.15A3.06 3.06 0 0114 52a9.3 9.3 0 00-.5-1c0 .33-.59.66-.5 1a5.68 5.68 0 002.24 2.52 2.39 2.39 0 00.44.32l.56.38a8.78 8.78 0 004.64 1.53A4.33 4.33 0 0022 56.6a15.62 15.62 0 002.49 3.92c2.22 2.78 2.05 4.7 1.6 5.41s-1.14 1.73-4.17.83c-1.22-.36-2.57-.84-3.85-1.2-4.13-1.51-7.16-7.25-7.28-8.2l-1 .12a17 17 0 005.39 7.58 2.25 2.25 0 00-1.61.56C12.13 67.06 11 69 17.25 75.21H24C19 72 15.67 68.7 16.46 68c.59-.55 4.94 2 8.31 1.82C31.11 69.78 36 68.24 36 63z" fill="#65684e"/>
  <path fill="#ffd1c4" d="M14 83h18v2H14z"/>
  <path fill="#e2d7ee" d="M94 76h-3V45h3z"/>
  <path fill="#cdbee0" d="M47 45h45v31H47z"/>
  <path fill="#bdaed3" d="M79 54h2v15h-2z"/>
  <path fill="#b4a0cb" d="M56 54h24v15H56z"/>
  <path fill="#937fac" d="M65 64h6v20h-6z"/>
  <path fill="#493d57" d="M61 84h17v1H61z"/>
  <path fill="#937fac" d="M89 72h1v2h-1zM87 72h1v2h-1zM85 72h1v2h-1zM83 72h1v2h-1z"/>
  <circle cx="49.5" cy="73.5" r=".5" fill="#715e86"/>
  <path d="M15 59H7c-1.53 0-1.09-4 4-4s5.53 4 4 4zM22 65H10c-2 0-1-6 6-6s8 6 6 6zM39 63h-6c-2 0-1-3 3-3s5 3 3 3zM31.88 48H16.12c-2.63 0-.88-6.13 7.88-6.13S34.51 48 31.88 48zM38 56H28c-2 0-.71-4 5-4s7 4 5 4zM18 52h-8c-2 0-1-3 4-3s6 3 4 3z" fill="#858a67"/>
  <path d="M32 84s5.16-3 2.16-9H12c-3 6 2 9 2 9z" fill="#fdb29d"/>
  <path fill="#b4c6d9" d="M210 0h2v96h-2z"/>
  <path fill="#d0ddea" d="M202 0h9v96h-9z"/>
  <path fill="#fbf8ff" d="M195 0h8v96h-8z"/>
  <path d="M207 58h1v16h-1a1 1 0 01-1-1V59a1 1 0 011-1z" fill="#56687a"/>
  <path d="M199 74h-1V58h1a1 1 0 011 1v14a1 1 0 01-1 1z" fill="#7389a0"/>
  <path fill="#915907" d="M0 87h159v9H0z"/>
  <path fill="#ac8245" d="M0 85h159v3H0z"/>
  <path d="M43 96h-1c0-6.14 5.13-11.38 9.65-16C55.43 76.13 59 72.48 59 69h1c0 3.89-3.71 7.68-7.63 11.69C47.76 85.4 43 90.27 43 96z" fill="#493d57"/>
</svg>
