<svg xmlns="http://www.w3.org/2000/svg" viewBox="0 0 288 96" id="hospital-desk-default" aria-hidden="true" role="none" data-supported-dps="288x96">
  <path fill="#f1ece6" d="M0 0h288v96H0z"/>
  <ellipse cx="19.76" cy="42.81" rx="4.9" ry="10.7" transform="rotate(-51.15 19.768 42.807)" fill="#918675"/>
  <path d="M41.8 40.9c-.1.1-8.5 8.5-9.6 20.2l-.7-.1c1.1-12 9.8-20.6 9.9-20.7z" fill="#6e6558"/>
  <path fill="#f9d3c8" d="M90 9h38v40H90z"/>
  <path d="M127 10v38H91V10h36m2-2H89v42h40z" fill="#f4ba64"/>
  <path fill="#cdbee0" d="M95 31h12v13H95z"/>
  <path fill="#fff" d="M96 29h14v14H96z"/>
  <path fill="#94c9fd" d="M116 40h7v4h-7z"/>
  <path fill="#38b7cb" d="M116 37h7v3h-7z"/>
  <path fill="#98acaf" d="M114 18h9v15h-9z"/>
  <path fill="#dd9784" d="M94 14h13v10H94z"/>
  <path fill="#e4eff1" d="M270 0h18v23h-18z"/>
  <path fill="#fff" d="M288 24h-19V0h2v22h17v2z"/>
  <path fill="#cbe5ff" d="M0 0h58v34H0z"/>
  <path fill="#fff" d="M0 32h58v3H0z"/>
  <ellipse cx="41.51" cy="39.02" rx="10.4" ry="5.9" transform="rotate(-56.44 41.511 39.017)" fill="#918675"/>
  <path fill="#ca9342" d="M0 74h231v22H0z"/>
  <path fill="#a678a4" d="M39 62l-1.9 12H26.9L25 62h14z"/>
  <path d="M43 30.3c-2.2 5.3-5.8 8.9-8.1 7.9a2.09 2.09 0 01-.6-.4c-2.2 3.9-4.6 9.1-4.1 13.8a67.1 67.1 0 01.9 8.9L30 59c-1-10.3-11.7-16.7-11.8-16.7l.4-.6c.1 0 8.3 5 11.2 13.1-.4-3.6-2.8-14.6-2.8-14.6-3.7.5-6.9-2.9-7.7-7.8s1.1-9.3 4.4-9.9 6.6 2.9 7.5 7.9c.8 4.4-.8 8.5-3.5 9.6.8 2.9 1.3 5.6 1.8 8a32.4 32.4 0 014.2-10.8c-1.2-2-.9-6.1.8-10.4 2.2-5.3 5.8-8.9 8.1-7.9s2.6 6.1.4 11.4z" fill="#6e6558"/>
  <path fill="#c69ac4" d="M24 59h16v5H24z"/>
  <path fill="#98acaf" d="M98 32h10v1H98zM98 34h10v1H98zM98 36h10v1H98zM104 40h4v1h-4z"/>
  <path fill="#fff" d="M116 30h5v1h-5zM116 28h5v1h-5zM116 26h5v1h-5zM116 24h5v1h-5z"/>
  <path fill="#cfdee0" d="M166 0h62v23h-62z"/>
  <path fill="#95abc1" d="M158 0h13v23h-13z"/>
  <path fill="#2d89e7" d="M171 0h2v23h-2z"/>
  <path fill="#fff" d="M176 17h21v1h-21zM176 14h5v1h-5zM176 11h21v1h-21zM176 8h5v1h-5zM204 17h21v1h-21zM204 14h5v1h-5zM204 11h21v1h-21zM204 8h5v1h-5z"/>
  <circle cx="163.5" cy="17.5" r="2.5" fill="#e7eef5"/>
  <path fill="#d0ddea" d="M276 0h12v14h-12z"/>
  <path fill="#67d3e4" d="M276 11l12-2v8h-12v-6z"/>
  <path d="M46 0c0 10-20 20-33 16C24.2 23.6 0 27 0 27V0z" fill="#85dce9"/>
  <path fill="#a77a39" d="M208 74h24v22h-24z"/>
  <path fill="#fdddb1" d="M37 83h1v2h-1zM35 83h1v2h-1zM33 81h1v4h-1zM31 83h1v2h-1zM29 83h1v2h-1zM27 83h1v2h-1zM25 83h1v2h-1zM23 83h1v2h-1zM21 83h1v2h-1z"/>
  <path fill="#0a66c2" d="M18 84h23v12H18z"/>
  <path fill="#0a2036" d="M18 84h23v2H18z"/>
  <path fill="#004182" d="M0 80h21v16H0z"/>
  <path fill="#0a66c2" d="M0 78h21v3H0z"/>
  <path fill="#004182" d="M40 79h2v17h-2z"/>
  <path fill="#5b696b" d="M202 73.5h1V91h-1z"/>
  <path fill="#3c4345" d="M199 89h9v2h-9z"/>
  <path fill="#fcd59d" d="M178 91h30v5h-30z"/>
  <path fill="#3c4345" d="M201.6 70h1.4v7h-2.7l-1.4 7.3-2-.3 5.5-29 1.9.3-2.7 14.7z"/>
  <path d="M170 91l1-6 10.6 2.1a3.4 3.4 0 001-.1l1.7-.6a2.21 2.21 0 011.6 0l3.9 1.3a1.24 1.24 0 01.8 1.5L190 91z" fill="#a96c3f"/>
  <path fill="#fff" d="M197.284 52.496l13.365-6.81 9.08 17.82-13.365 6.81z"/>
  <path fill="#cfdee0" d="M202.158 53.366l6.236-3.18.454.89-6.236 3.18zM202.68 56.507l8.018-4.089.454.891-8.017 4.089zM203.534 58.21l8.017-4.09.454.892-8.017 4.088zM204.446 60.019l8.018-4.09.454.892-8.017 4.088zM205.355 61.819l8.018-4.089.454.89-8.018 4.09zM206.259 63.61l8.017-4.089.455.891-8.018 4.089zM207.172 65.419l8.017-4.089.455.891-8.018 4.089zM76 58L60 74.7 63.8 85 76 58z"/>
  <path d="M73.1 50.3c0 3 .8 6 3 7.7l-5 9-2.3-4.1a1.84 1.84 0 00-2.2-1c-.8.2-1.7.5-2.1.6a1.77 1.77 0 01-2.3-.8s-1.1-2.4-1.4-2.8-1.3-.4-1.5-.5-.7-.1-.7-.6a9.91 9.91 0 00-.7-4.5 8 8 0 01-.7-3.4c0-.2 1-4.2 2.3-5.6z" fill="#f0c59f"/>
  <circle cx="64.5" cy="57.5" r=".5" fill="#a96c3f"/>
  <path d="M36.3 79.2l-1.2-.6-2.8 2.2a.45.45 0 01-.5 0c-.2-.1-.2-.4 0-.6l2.4-2.2 2.4-.2z" fill="#d69264"/>
  <path d="M31 79.3c.3.3 1 .1 1 .1a5.56 5.56 0 014-.3l.1-.4-4.3-.9z" fill="#d69264"/>
  <path d="M62.2 85.9l6.8-3.4-9-7.8-4 3.3s-15.6-2.4-16.7-2.4a18.52 18.52 0 00-8.6 2.1.55.55 0 00-.3.7l-.3.2c-.2.1-.2.4-.1.6.1.2.3.2.5.1a7.07 7.07 0 015.7-.2.54.54 0 01.2.8c-.1.1-.1.2-.2.2l-1.4.9a.54.54 0 00-.2.8.54.54 0 00.8.2c.5-.2 1.3-.7 1.8-.9.8-.3 2.5-.2 3.5-1.3.8-.4 21.5 6.1 21.5 6.1z" fill="#e8ae83"/>
  <path d="M223.5 56.3l-4-.9a3.13 3.13 0 01-1-.5l-2.7-2.6a1.61 1.61 0 00-.7-.4l-1.8-.4a.38.38 0 00-.5.3v.1a1 1 0 00.6.9l1.5.8v.6a2.88 2.88 0 00.9 2.1l1 1 1 1.9 7.3 2.6z" fill="#bf7461"/>
  <path d="M100 96h-7l2-19.2c.2-1.7 1.2-2.8 3.4-2.8h3.6z" fill="#0a2036"/>
  <path d="M76 58c-6.9 6.8-12.2 22.3-12.2 22.3l7.8 6-3.9 9.7h25.5c0-17.6-3-30.9-17.2-38z" fill="#f4faff"/>
  <path fill="#2d89e7" d="M265 92l-.4 4H245V85l20 7z"/>
  <path d="M251 43.6L237 59l-13.5-2.7-2.1 7.7 11.4 4.1c7.4 2.1 15.4-2.9 18-5.8z" fill="#3c4345"/>
  <path d="M110.1 68.2l-.2 2-1.3-.2a5.61 5.61 0 00-6.1 5.1L100.7 96H98v-1a4.15 4.15 0 00-4-4h-4v-1h4a5.13 5.13 0 014.8 3.8l1.7-18.8a7.62 7.62 0 018.2-7z" fill="#0a66c2"/>
  <path d="M72 89h18a2 2 0 012 2 2 2 0 01-2 2H72a2 2 0 01-2-2 2 2 0 012-2z" fill="#0a2036"/>
  <path d="M256.7 31.8c-.4 2.8-.1 5.2 1.3 7.2l-7 4.6c-.7-1.4-8-5.8-8.2-5.8a1.88 1.88 0 00-.8-.2c-.4-.1-.8-.2-.7-.7a7.15 7.15 0 000-4.1c-.9-3.5 1-8.8 5-10.2z" fill="#bf7461"/>
  <path d="M256.8 31.9a23 23 0 00-.2 3.7c-2.2-.1-3.4-.6-4.6-3.9a2 2 0 00-3.7 1.3c0 .1 3 6.8 3 6.8.6 1.5-.4 3.9-.4 3.9-1.6-1.7-5 .7-6.4-2.3-1.3-2.8-1.7-3.5-1.7-3.5 2.5-.5 4 .8 4.8 0s.8-3 .2-4.6a12.28 12.28 0 00-2.3-4 1.35 1.35 0 01-.4-2v-.1l1.5-1.8c.4-.6-.1-1-.6-.7s-1.8 2.4-3.3.8a7.41 7.41 0 019.5-2.6c5.6 2.1 4.8 7.2 4.6 9z" fill="#5d3b09"/>
  <path d="M258 39l-8 5-6.5 22.8c-2.3 7-1.7 12.2.5 15.2l15-42z" fill="#fcd59d"/>
  <path d="M259 40c3.9 4 7.7 13.8 9.1 17.5S267 76 267 76a143.17 143.17 0 01-1 16h-13c-3.8 0-8.9-4.2-9-10 0-6 .2-31.8 15-42z" fill="#3c4345"/>
  <path d="M263.2 46.9a79.77 79.77 0 014.9 10.7c1.4 3.8 3.6 10.1-.9 18.1L260 84l-8-3 9.1-14.4-7.1-14.5c-4-7.2 5.5-12 9.2-5.2z" fill="#495154"/>
  <path fill="#fcd59d" d="M252 81l6 5 2-2-8-3zM219.7 63.5l1.7.5 2.1-7.7-1.5-.3-2.3 7.5z"/>
  <path d="M155.8 55.2a3.86 3.86 0 01.2 2.8l7.6 4.8 1.1-4.8a2.52 2.52 0 011.9-1.7c1-.3 1.9-.7 2.3-.8a2 2 0 001.2-2.5s-.7-1.8-.8-2.3a1.31 1.31 0 01.3-1.2.77.77 0 00.1-1 12 12 0 01-2.2-4l-1.6-3.9z" fill="#a96c3f"/>
  <path d="M167 43.5c-.1-.1-.4-.6-1-1.5 0 1.7-2.7 3.1-3.6 5.3a3.53 3.53 0 00-.3 1.4l-2.9 2.9c.1 1.2.3 2.8-1.6 3.6s-4.5-.7-5.3-2.6c-.2.8-.6 1.3-1.2 1.3-2 0-3-1-3-6 0-3 2.2-4.3 3.4-3.5 1-2.7 3.7-4.4 5.6-5.4a7.59 7.59 0 018.3.4c1 .7 1.6 2.1 1.6 4.1z" fill="#0d2225"/>
  <path d="M201.5 60.9l5.6-.5a.63.63 0 01.6.5.57.57 0 01-.4.7l-3.1.7h1.4a.65.65 0 01.6.6.75.75 0 01-.5.7l-1.8.4.6-.2a.72.72 0 01.9.5v.1c0 .4-.2.7-.6.7l-1 .2.1.2a.74.74 0 01-.4.9l-4.3 1.8c-.6.3-16.3 12.8-16.3 12.8-2.1 1.5-5 .8-6.6 0s-5.3-3-5.3-3l7.3-5.2 1.6 1.2 15.5-8.8a5.09 5.09 0 001.6-1.3l3.9-4.3z" fill="#a96c3f"/>
  <path fill="#e09a33" d="M194.1 65.9l2.9 3.9-1.5 1.2-3-4.2 1.6-.9z"/>
  <path d="M173 96h-25.6c-3.8-6.9-2.3-18.2.5-25.5 2.5-6.5 6.7-9 8.2-12.5l10 2-.7 3.2L171 84c0 5 .1 9 2 12z" fill="#fff"/>
  <path d="M171 84l7.3-11.2a182 182 0 00-15.1-11C156 58 150 68 156 73s15 11 15 11z" fill="#cfdee0"/>
  <path d="M61.2 84.6l-13.1-5a5.43 5.43 0 01-2.6-2.1L44 75.6a1.55 1.55 0 00-2-.4l-5.1 1.5c-1 .3-.5 1.2.1 1.1-.5.3.1 1.1 1.2.6-.5.5.3.8 1.2.5-.4.5.1.9 1.1.5a.64.64 0 01.7.4l.5 1c.8 1.3 2.6.8 3.3 1.2s15 10.7 15 10.7a6.22 6.22 0 008.1-.4L73 87l-9.7-7.1z" fill="#f0c59f"/>
  <path d="M73 87l-9.7-7.1 6.4-13.2C75 55 90.2 63.3 83.2 73.5z" fill="#e4eff1"/>
  <path d="M64.8 52.2L60.3 54l1 2.1-.9.4-1.9-4 .9-.4.5 1 4.4-1.8.6-.2a1.73 1.73 0 00-.1 1z" fill="#3c4345"/>
  <path d="M73.6 54.2c-1.9.6-4.6.2-4.9-2.1s-1.9-2.6-2.9-2.1a2.35 2.35 0 00-1 2.2 1.05 1.05 0 00-.5-.9c-1-.6-2.9-.8-3.2-3.2-.5 2.5-2.2 2.9-2.2 2.9a3.18 3.18 0 000-3.5c-.3 3.4-1.8 3.9-1.8 3.9-.7-2.3.1-12.6 11.5-9.9 4.6 1.2 4.7 5.4 4.6 8.3s.1 3.5.4 4.4z" fill="#915907"/>
  <path d="M65 51a4.25 4.25 0 00-.2 1.1 1.05 1.05 0 00-.5-.9c-.1-.1-.2-.1-.3-.2h1z" fill="#915907"/>
  <path d="M109.1 70.3l.1-1.5a.77.77 0 01.8-.7l6.6.6a.77.77 0 01.7.8l-.1 1.5a.77.77 0 01-.8.7l-6.6-.6a.71.71 0 01-.7-.8z" fill="#1c2024"/>
  <circle cx="160" cy="50" r="3" fill="#56687a"/>
  <path d="M170 52h-2a.94.94 0 00-1 1h-3.5a1.86 1.86 0 01-2.1-1.3l-.1-.2a2.28 2.28 0 00.7-1.9 2 2 0 00-2-1.7l-3.7-8.7a.47.47 0 10-.9.3L159 48a2 2 0 00-.9 2.7 2.15 2.15 0 002.3 1.1h.1l.1.1a2.84 2.84 0 003 1.9h6.5a.94.94 0 001-1c0-.6-.5-.8-1.1-.8z" fill="#38434f"/>
  <path d="M168 95.6v.4h-3v-.4a5.59 5.59 0 00-5.6-5.6H143v-3h16.4a8.54 8.54 0 018.6 8.6z" fill="#3c4345"/>
  <path d="M137 96V62.8c0-6 4.1-5.7 6-1.9s9 19.1 5 35.1z" fill="#65684e"/>
  <path d="M135.1 74h1.9v22h-4V76.1a2.05 2.05 0 012.1-2.1z" fill="#3c4345"/>
</svg>
